<svg viewBox="0 0 100 100" xmlns="http://www.w3.org/2000/svg" xml:space="preserve" style="fill-rule:evenodd;clip-rule:evenodd;stroke-linejoin:round;stroke-miterlimit:2"><path d="M-79.5-117.5h-256c-11 0-20 9-20 20v256c0 11 9 20 20 20h256c11 0 20-9 20-20v-256c0-11-9-20-20-20z" style="fill:#a50064" transform="matrix(.33784 0 0 .33784 120.101 39.696)"/><path d="M-150.7 21.5c23.5 0 42.5-19 42.5-42.5s-19-42.5-42.5-42.5-42.5 19-42.5 42.5 19 42.5 42.5 42.5zm0-60.6c10 0 18.1 8.1 18.1 18.1 0 10-8.1 18.1-18.1 18.1-10 0-18.1-8.1-18.1-18.1 0-10 8.1-18.1 18.1-18.1zM-150.7 39.9c-23.5 0-42.5 19-42.5 42.5s19 42.5 42.5 42.5 42.5-19 42.5-42.5-19-42.5-42.5-42.5zm0 60.6c-10 0-18.1-8.1-18.1-18.1 0-10 8.1-18.1 18.1-18.1 10 0 18.1 8.1 18.1 18.1 0 10-8.1 18.1-18.1 18.1zM-237.3 39.9c-7.2 0-13.8 2.4-19.1 6.4-5.3-4-12-6.4-19.1-6.4-17.6 0-31.9 14.3-31.9 31.9V125h24.4V71.5c0-4 3.2-7.2 7.2-7.2s7.2 3.2 7.2 7.2v53.4h24.4V71.5c0-4 3.2-7.2 7.2-7.2s7.2 3.2 7.2 7.2v53.4h24.3V71.7c0-17.5-14.2-31.8-31.8-31.8zM-237.3-63.5c-7.2 0-13.8 2.4-19.1 6.4-5.3-4-12-6.4-19.1-6.4-17.7 0-32 14.3-32 31.9v53.1h24.4v-53.4c0-4 3.2-7.2 7.2-7.2s7.2 3.2 7.2 7.2v53.4h24.4v-53.4c0-4 3.2-7.2 7.2-7.2s7.2 3.2 7.2 7.2v53.4h24.4v-53.1c0-17.6-14.2-31.9-31.8-31.9z" style="fill:#fff;fill-rule:nonzero" transform="matrix(.33784 0 0 .33784 120.101 39.696)"/></svg>