<?xml version="1.0" encoding="UTF-8" standalone="no"?>
<!DOCTYPE svg PUBLIC "-//W3C//DTD SVG 1.1//EN" "http://www.w3.org/Graphics/SVG/1.1/DTD/svg11.dtd">
<svg width="100%" height="100%" viewBox="0 0 100 100" version="1.1" xmlns="http://www.w3.org/2000/svg" xmlns:xlink="http://www.w3.org/1999/xlink" xml:space="preserve" xmlns:serif="http://www.serif.com/" style="fill-rule:evenodd;clip-rule:evenodd;stroke-linejoin:round;stroke-miterlimit:2;">
    <g transform="matrix(0.337838,0,0,0.337838,120.101,39.6959)">
        <g id="_2" serif:id="2">
            <path d="M-79.5,-117.5L-335.5,-117.5C-346.5,-117.5 -355.5,-108.5 -355.5,-97.5L-355.5,158.5C-355.5,169.5 -346.5,178.5 -335.5,178.5L-79.5,178.5C-68.5,178.5 -59.5,169.5 -59.5,158.5L-59.5,-97.5C-59.5,-108.5 -68.5,-117.5 -79.5,-117.5Z" style="fill:rgb(165,0,100);"/>
            <g>
                <path d="M-150.7,21.5C-127.2,21.5 -108.2,2.5 -108.2,-21C-108.2,-44.5 -127.2,-63.5 -150.7,-63.5C-174.2,-63.5 -193.2,-44.5 -193.2,-21C-193.2,2.5 -174.2,21.5 -150.7,21.5ZM-150.7,-39.1C-140.7,-39.1 -132.6,-31 -132.6,-21C-132.6,-11 -140.7,-2.9 -150.7,-2.9C-160.7,-2.9 -168.8,-11 -168.8,-21C-168.8,-31 -160.7,-39.1 -150.7,-39.1Z" style="fill:white;fill-rule:nonzero;"/>
                <path d="M-150.7,39.9C-174.2,39.9 -193.2,58.9 -193.2,82.4C-193.2,105.9 -174.2,124.9 -150.7,124.9C-127.2,124.9 -108.2,105.9 -108.2,82.4C-108.2,58.9 -127.2,39.9 -150.7,39.9ZM-150.7,100.5C-160.7,100.5 -168.8,92.4 -168.8,82.4C-168.8,72.4 -160.7,64.3 -150.7,64.3C-140.7,64.3 -132.6,72.4 -132.6,82.4C-132.6,92.4 -140.7,100.5 -150.7,100.5Z" style="fill:white;fill-rule:nonzero;"/>
                <path d="M-237.3,39.9C-244.5,39.9 -251.1,42.3 -256.4,46.3C-261.7,42.3 -268.4,39.9 -275.5,39.9C-293.1,39.9 -307.4,54.2 -307.4,71.8L-307.4,125L-283,125L-283,71.5C-283,67.5 -279.8,64.3 -275.8,64.3C-271.8,64.3 -268.6,67.5 -268.6,71.5L-268.6,124.9L-244.2,124.9L-244.2,71.5C-244.2,67.5 -241,64.3 -237,64.3C-233,64.3 -229.8,67.5 -229.8,71.5L-229.8,124.9L-205.5,124.9L-205.5,71.7C-205.5,54.2 -219.7,39.9 -237.3,39.9Z" style="fill:white;fill-rule:nonzero;"/>
                <path d="M-237.3,-63.5C-244.5,-63.5 -251.1,-61.1 -256.4,-57.1C-261.7,-61.1 -268.4,-63.5 -275.5,-63.5C-293.2,-63.5 -307.5,-49.2 -307.5,-31.6L-307.5,21.5L-283.1,21.5L-283.1,-31.9C-283.1,-35.9 -279.9,-39.1 -275.9,-39.1C-271.9,-39.1 -268.7,-35.9 -268.7,-31.9L-268.7,21.5L-244.3,21.5L-244.3,-31.9C-244.3,-35.9 -241.1,-39.1 -237.1,-39.1C-233.1,-39.1 -229.9,-35.9 -229.9,-31.9L-229.9,21.5L-205.5,21.5L-205.5,-31.6C-205.5,-49.2 -219.7,-63.5 -237.3,-63.5Z" style="fill:white;fill-rule:nonzero;"/>
            </g>
        </g>
    </g>
</svg>
