<?xml version="1.0" encoding="UTF-8" standalone="no"?>
<!DOCTYPE svg PUBLIC "-//W3C//DTD SVG 1.1//EN" "http://www.w3.org/Graphics/SVG/1.1/DTD/svg11.dtd">
<svg width="100%" height="100%" viewBox="0 0 100 100" version="1.1" xmlns="http://www.w3.org/2000/svg" xmlns:xlink="http://www.w3.org/1999/xlink" xml:space="preserve" xmlns:serif="http://www.serif.com/" style="fill-rule:evenodd;clip-rule:evenodd;stroke-linejoin:round;stroke-miterlimit:2;">
    <g transform="matrix(0.160273,0,0,0.160273,-146.493,36.8054)">
        <g transform="matrix(0.96,0,0,0.96,49.0397,-59.5228)">
            <path d="M1263.8,-1.8L1200.4,61.6L1189.5,72.6L1174.8,87.3L1172.5,89.5L1166.1,96L1163.8,98.2L1142.1,119.9L1139.8,122.1C1133.5,128.4 1126.3,133.8 1118.5,138.2C1114.8,140.3 1110.9,142.1 1106.9,143.6C1097.9,147.1 1088.5,149.2 1078.9,149.7C1073.1,150.2 1067.2,150.2 1061.4,149.7C1048.7,148.3 1036.4,144.4 1025.2,138.1C1020.2,135.5 1015.5,132.2 1011.3,128.4L1008.6,125.7L924.1,40.4L922.4,38.7C920.9,37.1 919.6,35.3 918.5,33.4C915.6,28.5 914.1,22.9 914.1,17.2C914,16.3 914,15.4 914.1,14.5L914.1,9C915.2,4.8 917.2,0.8 919.9,-2.6C920.6,-3.5 921.4,-4.4 922.2,-5.1L923.7,-6.6L1014.7,-96.4L1069.2,-150.8C1081.2,-162.8 1100.5,-163.5 1113.4,-152.3L1263.8,-1.8Z" style="fill:rgb(0,91,170);fill-rule:nonzero;"/>
            <path d="M1100.1,200.4C1092.8,200.4 1085.5,198.8 1078.9,195.6L1061.6,178.4L1057.3,174.2L1056.6,173.4L1048.6,165.4L1008.4,124.7L1011.1,127.4C1015.3,131.3 1020,134.6 1025.1,137.3C1036.2,143.6 1048.5,147.5 1061.3,148.9C1067.1,149.4 1073,149.4 1078.8,148.9C1088.4,148.3 1097.9,146.2 1106.8,142.8C1110.8,141.3 1114.7,139.4 1118.4,137.4C1126.2,133 1133.4,127.6 1139.7,121.3L1142,119.1L1163.7,97.4L1166,95.2L1172.4,88.7L1174.7,86.5L1189.4,71.8L1200.3,60.8L1215.4,46.9L1217.7,44.6L1311,-48.1L1349.2,-90.6L1351.3,-92.6C1363.1,-104.3 1382.1,-104.3 1393.8,-92.6L1414.9,-71.5L1415.6,-71.5C1406,-71.9 1396.7,-68.3 1389.9,-61.6L1318.6,7.9L1317.9,8.7L1194.1,132L1148.3,176.8L1145.5,179.7C1139.3,185.7 1132.1,190.8 1124.3,194.5C1120,196.6 1115.4,198.2 1110.6,199.1C1107.9,199.7 1105.1,200 1102.4,200.1L1100.1,200.4Z" style="fill:rgb(237,28,36);fill-rule:nonzero;"/>
            <path d="M1529.2,85L1526.9,87.3L1426,189.7L1319.7,297.4C1316.4,300.7 1312.8,303.8 1309,306.6L1307.5,307.6C1269.4,334.8 1217.3,331.2 1183.4,298.9L1180.6,297.3L1111.1,227.8L1093.9,210.5L1091.6,208.1C1094.4,208.6 1097.1,208.8 1099.9,208.8L1102.3,208.8C1105.6,208.7 1108.8,208.2 1112,207.5C1117.4,206.4 1122.7,204.6 1127.6,202.2C1136.1,198 1144,192.4 1150.8,185.7L1153.9,182.3L1193.3,143.6L1329,10.4L1329.7,9.5L1396.2,-54.9C1405.1,-63.4 1418.7,-64.6 1429,-57.8L1444.5,-42.2L1529.1,42.5C1529.9,43.2 1530.6,44 1531.2,44.8C1540.9,56.8 1540.1,74.1 1529.2,85Z" style="fill:rgb(237,28,36);fill-rule:nonzero;"/>
            <path d="M1202.2,-27.1C1199.7,-24.8 1195.9,-24.8 1193.4,-27.1C1153.4,-67.4 1088.3,-67.6 1048,-27.6C1007.7,12.4 1007.5,77.5 1047.5,117.8L1078.4,148.9C1078.4,149.1 1066.2,149.3 1060.5,148.8L1038.6,126.9C993.8,81.8 994.1,8.9 1039.2,-35.9C1084.3,-80.7 1157.2,-80.4 1202,-35.3C1204.1,-33.1 1204.2,-29.5 1202.2,-27.1Z" style="fill:rgb(0,158,219);fill-rule:nonzero;"/>
            <path d="M1250.1,12.3L1241.4,20.9L1226.2,5.6C1223.8,3.2 1223.8,-0.7 1226.2,-3.1C1228.6,-5.5 1232.5,-5.5 1234.9,-3.1L1250.1,12.3Z" style="fill:rgb(0,158,219);fill-rule:nonzero;"/>
            <path d="M1118.4,137.3C1118.4,137.3 1110.8,141.3 1106.8,142.7L1064.7,100.6C1038,73.7 1034.2,31.7 1055.7,0.5C1057.6,-2.3 1061.4,-3 1064.3,-1.1C1067.1,0.8 1067.8,4.7 1065.8,7.5C1047.7,33.8 1050.9,69.3 1073.4,92L1118.4,137.3Z" style="fill:rgb(0,158,219);fill-rule:nonzero;"/>
            <path d="M1224.2,37.9L1215.7,46.4L1167.9,-2C1150,-19.9 1123.5,-26.2 1099.5,-18.1C1096.4,-16.7 1092.8,-18 1091.3,-21.1C1089.9,-24.2 1091.2,-27.8 1094.3,-29.3C1094.7,-29.5 1095.2,-29.6 1095.6,-29.7C1123.9,-39 1155,-31.4 1175.9,-10.2L1224.2,37.9Z" style="fill:rgb(0,158,219);fill-rule:nonzero;"/>
            <path d="M1198,63L1189.4,71.7L1141.8,23.8C1128.9,13.3 1109.9,15.1 1099.4,28C1090.3,39.2 1090.3,55.2 1099.5,66.3L1130.4,97.5C1132.8,99.9 1132.8,103.8 1130.4,106.2C1128,108.6 1124.1,108.6 1121.7,106.2L1090.2,75C1074.4,57.6 1075.8,30.7 1093.2,14.9C1109.5,0.1 1134.4,0.2 1150.6,15.2L1198,63Z" style="fill:rgb(0,158,219);fill-rule:nonzero;"/>
            <path d="M1172.4,88.6L1163.9,97.1L1116.1,49.4C1113.7,47 1113.7,43.1 1116.1,40.7C1118.5,38.3 1122.4,38.3 1124.8,40.7L1172.4,88.6Z" style="fill:rgb(0,158,219);fill-rule:nonzero;"/>
        </g>
        <g transform="matrix(0.101615,0,0,0.101615,850.125,287.091)">
            <g transform="matrix(6.23936,0,0,6.23936,914.025,-229.642)">
                <g>
                    <path d="M751.4,11.2C760.2,4.7 771.5,2.5 782.3,3.3C791.4,4.2 800.1,8.7 806.1,15.6C813.5,24.4 816.8,36.3 815.3,47.7C813.9,57.6 809.4,67.1 801.9,73.8C807.7,79.4 813.5,85.3 820.9,88.9C824.4,90.7 828.2,91.8 832.1,92.3C829,94.7 825.6,96.8 821.9,98.2C816.3,100.1 810,100.3 804.5,98.1C795.9,94.8 788.9,88.6 781.9,82.7C780.9,81.7 779.3,82.3 778.1,82.3C767.9,84 757.1,80.5 749.5,73.7C741.5,66.7 736.9,56.2 736.1,45.7C734.5,32.5 740.6,18.8 751.4,11.2ZM769.6,15.2C765.1,16.5 761.8,20.3 760.1,24.5C758.1,29.5 757.6,35.1 757.7,40.4C757.6,45.1 758.5,49.8 760.1,54.2C761.6,59 764,63.7 767.7,67.2C772.4,71.6 779.9,72.3 785.4,69.2C789.3,67 791.3,62.7 792.5,58.6C794.4,52 794,45 793.2,38.3C792.2,32.7 790.8,27 787.7,22.2C784,16.3 776.3,13.4 769.6,15.2Z" style="fill:rgb(237,27,35);fill-rule:nonzero;"/>
                </g>
                <path d="M3.5,4.2L53.3,4.2C67.2,42.4 81,80.6 94.9,118.8C106.6,87.4 118.4,56.1 130.1,24.7C130.9,22.5 130.9,19.9 129.9,17.7C127.8,13.1 125.4,8.7 123,4.4L160.2,4.4C158.3,11.3 155.7,18 153.4,24.8C137,70.5 120.5,116.2 104,161.9C89.9,159.2 75.8,153.8 65,144C59.5,139.1 55.7,132.7 52.9,126C49.9,118.7 47.1,111.4 44.1,104.1C32.3,74.1 20.4,44.1 8.5,14.1C7.1,10.7 5.4,7.4 3.5,4.2Z" style="fill:rgb(237,27,35);fill-rule:nonzero;"/>
                <path d="M165.6,4.2L214.1,4.2C240.3,36.4 266.4,68.7 292.6,101L292.6,26.2C292.6,23.5 292.8,20.5 291.3,18.1C288.4,13.4 285.1,8.9 281.9,4.4L328.6,4.4C324.9,9.1 321.2,13.8 317.4,18.5C316.3,19.8 316,21.5 316,23.1L316,162.5C306.4,161.2 296.6,159.3 287.8,155C279.9,151.2 273,145.3 267.4,138.5C245.6,111.6 223.8,84.7 201.9,57.9L201.9,139.8C201.8,141.6 202.4,143.3 203.6,144.6C207.3,149.2 211,153.9 214.7,158.6L168,158.6C170.5,154.7 173.1,150.9 175.8,147.2C177.4,144.9 178.8,142.2 178.7,139.3L178.7,68.7C178.6,54 178.8,39.3 178.6,24.7C174.5,17.7 169.9,11.1 165.6,4.2Z" style="fill:rgb(237,27,35);fill-rule:nonzero;"/>
                <g>
                    <path d="M818.1,4.9L855.4,4.9C860.6,4.8 866.1,6 870.4,9.1C876.2,13.2 879,20.8 878,27.7C877.2,31.9 875.3,35.9 872.1,38.8C869.9,40.8 867.3,42.3 864.7,43.7C869.6,52 874.6,60.4 879.5,68.7C882.3,73 885.4,77.2 889.2,80.6C882.2,81 875.1,82 868.1,81.6C865.2,81.5 862.1,80.4 860.4,78C858.1,75 856.7,71.5 854.8,68.3C851.3,61.7 847.8,55.1 844.3,48.6L844.3,69.4C844.3,72.2 844.6,75.2 846.1,77.7C846.9,79.2 848.3,80.2 849.6,81.3C839.1,81.4 828.5,81.4 818,81.3C819.2,80.2 820.6,79.2 821.4,77.8C822.7,75.4 823.1,72.6 823.1,70L823.1,23.4C823,19.1 823.4,14.7 822.3,10.5C821.6,8 819.8,6.4 818.1,4.9ZM844.3,15.9L844.3,42.3C847.2,41.7 850.1,40.6 852.3,38.5C857.5,33.7 858.3,25 853.9,19.4C851.7,16.6 847.8,15.8 844.3,15.9Z" style="fill:rgb(237,27,35);fill-rule:nonzero;"/>
                </g>
            </g>
            <g transform="matrix(6.23936,0,0,6.23936,914.025,-229.642)">
                <path d="M337.1,5C344.9,4.7 352.7,5 360.4,4.9L408.1,4.9C418.1,5.1 428.4,6.4 437.2,11.4C443.5,15 449.4,19.9 452.8,26.4C457.1,34.8 458.8,44.5 457.4,53.8C456.4,62.8 452.4,71.5 445.8,77.7C437.5,85.6 426.3,89.6 415.3,91.8C411,92.3 406.8,92.6 402.5,93C398.8,93.5 395.1,92.4 391.3,92.3C398.7,89.3 405.5,84.3 409.5,77.3C414.2,69.2 414.9,59.4 413.9,50.3C413.1,43.9 411,37.2 406,32.8C401.6,28.9 395.5,27.6 389.8,27.5C389.7,56.9 389.8,86.3 389.8,115.8C389.8,121.5 389.7,127.2 389.9,132.8C390.3,140.6 392.2,148.9 397.7,154.8C398.7,156 400.3,156.8 400.8,158.3C379.6,158.3 358.4,158.4 337.2,158.3C339.1,156.6 341.1,155.1 342.6,153.1C346.4,148 347.6,141.4 347.6,135.2L347.6,30.3C347.6,25.3 347.4,20.2 345.7,15.4C344,11.1 340.5,7.9 337.1,5Z" style="fill:rgb(0,90,170);fill-rule:nonzero;"/>
                <g>
                    <path d="M484.1,5C503.4,4.8 522.7,5 542,4.9C557.1,44.9 572.2,85 587.3,125C590.1,132.7 592.7,140.6 597.8,147.2C600.3,150.6 603.3,153.6 606.4,156.5C607,157 607.4,157.6 607.6,158.4C583.6,158.5 559.7,158.4 535.7,158.4L535.7,157.5C539.8,155.2 544,151.8 545.1,146.9C546.2,141.4 544.2,135.9 542.5,130.8C540.4,124.5 538.3,118.3 536.2,112L489.2,112C487.4,117.2 485.5,122.3 483.7,127.5C481.7,133 479.9,138.6 479.1,144.5C478.9,148.9 482,152.6 485.1,155.4C486,156.4 487.5,157 487.8,158.4L439.1,158.4C439.4,157.3 440.3,156.6 441.1,155.9C445.1,152.3 448.5,148 450.8,143.1C453.8,136.5 456,129.7 458.3,122.9C468.6,93.6 478.9,64.4 489.3,35.1C491.2,29.6 493.2,23.9 493.1,18C492.7,12.3 488.3,8.2 484.1,5ZM511.8,43.6C506.5,59.1 501.3,74.6 496,90.1L528.4,90.1C522.8,74.6 517.3,59.1 511.8,43.6Z" style="fill:rgb(0,90,170);fill-rule:nonzero;"/>
                </g>
                <path d="M573.1,5.1C592.3,4.9 611.4,5.1 630.6,5C642.3,23.5 653.9,42 665.6,60.5C672.1,51.2 678.7,41.9 685.3,32.5C687.5,29.3 689.1,25.7 690.2,22C691.2,18.5 691.4,14.6 689.5,11.4C687.9,8.5 685.1,6.8 682.5,5.1C700.7,4.9 718.9,5.1 737.1,5C717.8,32.6 698.5,60.2 679.1,87.8C678.7,88.3 678.4,89 678.5,89.6L678.5,116.2C678.5,123.3 678.3,130.5 679.1,137.6C680.1,143.5 681.7,149.6 686,154C687.1,155.5 689,156.4 689.6,158.2C667.7,158.2 645.8,158.3 623.9,158.2C624.2,157.1 625.3,156.7 626.2,156C629.9,153.5 632.2,149.4 633.3,145.1C634.8,139.3 634.3,133.2 634.4,127.3C634.3,114.4 634.5,101.4 634.3,88.5C620.6,67.8 606.6,47.3 592.7,26.7C589.4,21.7 586,16.7 582,12.2C579.4,9.5 576.1,7.4 573.1,5.1Z" style="fill:rgb(0,90,170);fill-rule:nonzero;"/>
            </g>
        </g>
    </g>
</svg>
