<svg viewBox="0 0 100 100" xmlns="http://www.w3.org/2000/svg" xml:space="preserve" style="fill-rule:evenodd;clip-rule:evenodd;stroke-linejoin:round;stroke-miterlimit:2"><path d="m1263.8-1.8-63.4 63.4-10.9 11-14.7 14.7-2.3 2.2-6.4 6.5-2.3 2.2-21.7 21.7-2.3 2.2c-6.3 6.3-13.5 11.7-21.3 16.1-3.7 2.1-7.6 3.9-11.6 5.4-9 3.5-18.4 5.6-28 6.1-5.8.5-11.7.5-17.5 0-12.7-1.4-25-5.3-36.2-11.6-5-2.6-9.7-5.9-13.9-9.7l-2.7-2.7-84.5-85.3-1.7-1.7c-1.5-1.6-2.8-3.4-3.9-5.3-2.9-4.9-4.4-10.5-4.4-16.2-.1-.9-.1-1.8 0-2.7V9c1.1-4.2 3.1-8.2 5.8-11.6.7-.9 1.5-1.8 2.3-2.5l1.5-1.5 91-89.8 54.5-54.4c12-12 31.3-12.7 44.2-1.5L1263.8-1.8z" style="fill:#005baa;fill-rule:nonzero" transform="translate(-138.633 27.266) scale(.15386)"/><path d="M1100.1 200.4c-7.3 0-14.6-1.6-21.2-4.8l-17.3-17.2-4.3-4.2-.7-.8-8-8-40.2-40.7 2.7 2.7c4.2 3.9 8.9 7.2 14 9.9 11.1 6.3 23.4 10.2 36.2 11.6 5.8.5 11.7.5 17.5 0 9.6-.6 19.1-2.7 28-6.1 4-1.5 7.9-3.4 11.6-5.4 7.8-4.4 15-9.8 21.3-16.1l2.3-2.2 21.7-21.7 2.3-2.2 6.4-6.5 2.3-2.2 14.7-14.7 10.9-11 15.1-13.9 2.3-2.3 93.3-92.7 38.2-42.5 2.1-2c11.8-11.7 30.8-11.7 42.5 0l21.1 21.1h.7c-9.6-.4-18.9 3.2-25.7 9.9l-71.3 69.5-.7.8L1194.1 132l-45.8 44.8-2.8 2.9c-6.2 6-13.4 11.1-21.2 14.8-4.3 2.1-8.9 3.7-13.7 4.6-2.7.6-5.5.9-8.2 1l-2.3.3z" style="fill:#ed1c24;fill-rule:nonzero" transform="translate(-138.633 27.266) scale(.15386)"/><path d="m1529.2 85-2.3 2.3L1426 189.7l-106.3 107.7c-3.3 3.3-6.9 6.4-10.7 9.2l-1.5 1c-38.1 27.2-90.2 23.6-124.1-8.7l-2.8-1.6-69.5-69.5-17.2-17.3-2.3-2.4c2.8.5 5.5.7 8.3.7h2.4c3.3-.1 6.5-.6 9.7-1.3 5.4-1.1 10.7-2.9 15.6-5.3 8.5-4.2 16.4-9.8 23.2-16.5l3.1-3.4 39.4-38.7L1329 10.4l.7-.9 66.5-64.4c8.9-8.5 22.5-9.7 32.8-2.9l15.5 15.6 84.6 84.7c.8.7 1.5 1.5 2.1 2.3 9.7 12 8.9 29.3-2 40.2z" style="fill:#ed1c24;fill-rule:nonzero" transform="translate(-138.633 27.266) scale(.15386)"/><path d="M1202.2-27.1c-2.5 2.3-6.3 2.3-8.8 0-40-40.3-105.1-40.5-145.4-.5-40.3 40-40.5 105.1-.5 145.4l30.9 31.1c0 .2-12.2.4-17.9-.1l-21.9-21.9c-44.8-45.1-44.5-118 .6-162.8 45.1-44.8 118-44.5 162.8.6 2.1 2.2 2.2 5.8.2 8.2zM1250.1 12.3l-8.7 8.6-15.2-15.3c-2.4-2.4-2.4-6.3 0-8.7 2.4-2.4 6.3-2.4 8.7 0l15.2 15.4z" style="fill:#009edb;fill-rule:nonzero" transform="translate(-138.633 27.266) scale(.15386)"/><path d="M1118.4 137.3s-7.6 4-11.6 5.4l-42.1-42.1c-26.7-26.9-30.5-68.9-9-100.1 1.9-2.8 5.7-3.5 8.6-1.6 2.8 1.9 3.5 5.8 1.5 8.6-18.1 26.3-14.9 61.8 7.6 84.5l45 45.3zM1224.2 37.9l-8.5 8.5L1167.9-2c-17.9-17.9-44.4-24.2-68.4-16.1-3.1 1.4-6.7.1-8.2-3-1.4-3.1-.1-6.7 3-8.2.4-.2.9-.3 1.3-.4 28.3-9.3 59.4-1.7 80.3 19.5l48.3 48.1z" style="fill:#009edb;fill-rule:nonzero" transform="translate(-138.633 27.266) scale(.15386)"/><path d="m1198 63-8.6 8.7-47.6-47.9c-12.9-10.5-31.9-8.7-42.4 4.2-9.1 11.2-9.1 27.2.1 38.3l30.9 31.2c2.4 2.4 2.4 6.3 0 8.7-2.4 2.4-6.3 2.4-8.7 0L1090.2 75c-15.8-17.4-14.4-44.3 3-60.1 16.3-14.8 41.2-14.7 57.4.3L1198 63z" style="fill:#009edb;fill-rule:nonzero" transform="translate(-138.633 27.266) scale(.15386)"/><path d="m1172.4 88.6-8.5 8.5-47.8-47.7c-2.4-2.4-2.4-6.3 0-8.7 2.4-2.4 6.3-2.4 8.7 0l47.6 47.9z" style="fill:#009edb;fill-rule:nonzero" transform="translate(-138.633 27.266) scale(.15386)"/><g><path d="M751.4 11.2c8.8-6.5 20.1-8.7 30.9-7.9 9.1.9 17.8 5.4 23.8 12.3 7.4 8.8 10.7 20.7 9.2 32.1-1.4 9.9-5.9 19.4-13.4 26.1 5.8 5.6 11.6 11.5 19 15.1 3.5 1.8 7.3 2.9 11.2 3.4-3.1 2.4-6.5 4.5-10.2 5.9-5.6 1.9-11.9 2.1-17.4-.1-8.6-3.3-15.6-9.5-22.6-15.4-1-1-2.6-.4-3.8-.4-10.2 1.7-21-1.8-28.6-8.6-8-7-12.6-17.5-13.4-28-1.6-13.2 4.5-26.9 15.3-34.5zm18.2 4c-4.5 1.3-7.8 5.1-9.5 9.3-2 5-2.5 10.6-2.4 15.9-.1 4.7.8 9.4 2.4 13.8 1.5 4.8 3.9 9.5 7.6 13 4.7 4.4 12.2 5.1 17.7 2 3.9-2.2 5.9-6.5 7.1-10.6 1.9-6.6 1.5-13.6.7-20.3-1-5.6-2.4-11.3-5.5-16.1-3.7-5.9-11.4-8.8-18.1-7zM3.5 4.2h49.8C67.2 42.4 81 80.6 94.9 118.8c11.7-31.4 23.5-62.7 35.2-94.1.8-2.2.8-4.8-.2-7-2.1-4.6-4.5-9-6.9-13.3h37.2c-1.9 6.9-4.5 13.6-6.8 20.4-16.4 45.7-32.9 91.4-49.4 137.1-14.1-2.7-28.2-8.1-39-17.9-5.5-4.9-9.3-11.3-12.1-18-3-7.3-5.8-14.6-8.8-21.9-11.8-30-23.7-60-35.6-90-1.4-3.4-3.1-6.7-5-9.9zM165.6 4.2h48.5c26.2 32.2 52.3 64.5 78.5 96.8V26.2c0-2.7.2-5.7-1.3-8.1-2.9-4.7-6.2-9.2-9.4-13.7h46.7c-3.7 4.7-7.4 9.4-11.2 14.1-1.1 1.3-1.4 3-1.4 4.6v139.4c-9.6-1.3-19.4-3.2-28.2-7.5-7.9-3.8-14.8-9.7-20.4-16.5-21.8-26.9-43.6-53.8-65.5-80.6v81.9c-.1 1.8.5 3.5 1.7 4.8 3.7 4.6 7.4 9.3 11.1 14H168c2.5-3.9 5.1-7.7 7.8-11.4 1.6-2.3 3-5 2.9-7.9V68.7c-.1-14.7.1-29.4-.1-44-4.1-7-8.7-13.6-13-20.5z" style="fill:#ed1b23;fill-rule:nonzero" transform="matrix(.10162 0 0 .10162 4.645 79.078)"/><path d="M818.1 4.9h37.3c5.2-.1 10.7 1.1 15 4.2 5.8 4.1 8.6 11.7 7.6 18.6-.8 4.2-2.7 8.2-5.9 11.1-2.2 2-4.8 3.5-7.4 4.9 4.9 8.3 9.9 16.7 14.8 25 2.8 4.3 5.9 8.5 9.7 11.9-7 .4-14.1 1.4-21.1 1-2.9-.1-6-1.2-7.7-3.6-2.3-3-3.7-6.5-5.6-9.7-3.5-6.6-7-13.2-10.5-19.7v20.8c0 2.8.3 5.8 1.8 8.3.8 1.5 2.2 2.5 3.5 3.6-10.5.1-21.1.1-31.6 0 1.2-1.1 2.6-2.1 3.4-3.5 1.3-2.4 1.7-5.2 1.7-7.8V23.4c-.1-4.3.3-8.7-.8-12.9-.7-2.5-2.5-4.1-4.2-5.6zm26.2 11v26.4c2.9-.6 5.8-1.7 8-3.8 5.2-4.8 6-13.5 1.6-19.1-2.2-2.8-6.1-3.6-9.6-3.5z" style="fill:#ed1b23;fill-rule:nonzero" transform="matrix(.10162 0 0 .10162 4.645 79.078)"/><g><path d="M337.1 5c7.8-.3 15.6 0 23.3-.1h47.7c10 .2 20.3 1.5 29.1 6.5 6.3 3.6 12.2 8.5 15.6 15 4.3 8.4 6 18.1 4.6 27.4-1 9-5 17.7-11.6 23.9-8.3 7.9-19.5 11.9-30.5 14.1-4.3.5-8.5.8-12.8 1.2-3.7.5-7.4-.6-11.2-.7 7.4-3 14.2-8 18.2-15 4.7-8.1 5.4-17.9 4.4-27-.8-6.4-2.9-13.1-7.9-17.5-4.4-3.9-10.5-5.2-16.2-5.3-.1 29.4 0 58.8 0 88.3 0 5.7-.1 11.4.1 17 .4 7.8 2.3 16.1 7.8 22 1 1.2 2.6 2 3.1 3.5-21.2 0-42.4.1-63.6 0 1.9-1.7 3.9-3.2 5.4-5.2 3.8-5.1 5-11.7 5-17.9V30.3c0-5-.2-10.1-1.9-14.9-1.7-4.3-5.2-7.5-8.6-10.4zM484.1 5c19.3-.2 38.6 0 57.9-.1 15.1 40 30.2 80.1 45.3 120.1 2.8 7.7 5.4 15.6 10.5 22.2 2.5 3.4 5.5 6.4 8.6 9.3.6.5 1 1.1 1.2 1.9-24 .1-47.9 0-71.9 0v-.9c4.1-2.3 8.3-5.7 9.4-10.6 1.1-5.5-.9-11-2.6-16.1-2.1-6.3-4.2-12.5-6.3-18.8h-47c-1.8 5.2-3.7 10.3-5.5 15.5-2 5.5-3.8 11.1-4.6 17-.2 4.4 2.9 8.1 6 10.9.9 1 2.4 1.6 2.7 3h-48.7c.3-1.1 1.2-1.8 2-2.5 4-3.6 7.4-7.9 9.7-12.8 3-6.6 5.2-13.4 7.5-20.2 10.3-29.3 20.6-58.5 31-87.8 1.9-5.5 3.9-11.2 3.8-17.1-.4-5.7-4.8-9.8-9-13zm27.7 38.6c-5.3 15.5-10.5 31-15.8 46.5h32.4c-5.6-15.5-11.1-31-16.6-46.5zM573.1 5.1c19.2-.2 38.3 0 57.5-.1 11.7 18.5 23.3 37 35 55.5 6.5-9.3 13.1-18.6 19.7-28 2.2-3.2 3.8-6.8 4.9-10.5 1-3.5 1.2-7.4-.7-10.6-1.6-2.9-4.4-4.6-7-6.3 18.2-.2 36.4 0 54.6-.1-19.3 27.6-38.6 55.2-58 82.8-.4.5-.7 1.2-.6 1.8v26.6c0 7.1-.2 14.3.6 21.4 1 5.9 2.6 12 6.9 16.4 1.1 1.5 3 2.4 3.6 4.2-21.9 0-43.8.1-65.7 0 .3-1.1 1.4-1.5 2.3-2.2 3.7-2.5 6-6.6 7.1-10.9 1.5-5.8 1-11.9 1.1-17.8-.1-12.9.1-25.9-.1-38.8-13.7-20.7-27.7-41.2-41.6-61.8-3.3-5-6.7-10-10.7-14.5-2.6-2.7-5.9-4.8-8.9-7.1z" style="fill:#005aaa;fill-rule:nonzero" transform="matrix(.10162 0 0 .10162 4.645 79.078)"/></g></g></svg>