<svg viewBox="0 0 100 100" xmlns="http://www.w3.org/2000/svg" xml:space="preserve" style="fill-rule:evenodd;clip-rule:evenodd;stroke-linejoin:round;stroke-miterlimit:2"><path d="m-319.1 45.8 266.7-39C-67.3-6.2-86.7-14-107.9-14h-194.2c-46.9 0-84.8 38-84.8 84.8V265c0 42.1 30.7 77.1 70.9 83.7L-351.2 89c-3-20.7 11.6-40.2 32.1-43.2z" style="fill:#1167cb;fill-rule:nonzero" transform="matrix(.27488 0 0 .27488 106.35 3.848)"/><path d="m-52.4 6.8-266.7 39c-20.5 3-35.1 22.5-32.1 43.3l35.2 259.7c4.5.7 9.2 1.2 13.9 1.2h194.2c46.9 0 84.8-38 84.8-84.8V70.8c0-25.5-11.3-48.5-29.3-64z" style="fill:#fff;fill-rule:nonzero" transform="matrix(.27488 0 0 .27488 106.35 3.848)"/><path d="m-52.4 6.8-.9.2C-35 23-24 46.5-24 70.9v193.9c0 46.4-37.8 84.2-84.2 84.2h-194c-4.4 0-9.5-.5-14-1.2l.1 1c4.7.8 9.2 1.2 13.8 1.2h193.9c47 0 85.2-38.2 85.2-85.2v-194c.1-24.8-10.5-47.8-29.2-64z" style="fill:#b3b3b3;fill-rule:nonzero" transform="matrix(.27488 0 0 .27488 106.35 3.848)"/><path d="M-160.3 106.8c-1.7-1.7-3.6-2.6-6.3-2.6-3.6 0-6.3 1.7-7.9 5.3-3.6-4.3-8.6-6.3-14.9-6.3-7.6 0-13.9 3-19.2 8.6-5.3 6-7.6 12.9-7.6 21.2 0 8.3 2.6 15.5 7.6 21.2 5.3 6 11.6 8.6 19.2 8.6 6.3 0 11.2-2 14.9-6.3 1.7 3.6 4.3 5.3 7.9 5.3 2.6 0 4.6-1 6.3-2.6 1.7-1.6 2.3-3.6 2.3-6.3v-40.7c.3-1.4-.7-3.7-2.3-5.4zm-17.9 36.7c-2 2.6-5 4-8.6 4-3.6 0-6.6-1.3-8.6-4-2-2.6-3.3-6-3.3-10.3 0-4 1-7.3 3.3-9.9 2-2.6 5-4 8.6-4 3.6 0 6.6 1.3 8.6 4 2 2.6 3.3 6 3.3 9.9-.3 4-1.3 7.8-3.3 10.3zM-138.2 159.7c-1.7 1.7-3.6 2.6-6.3 2.6-2.6 0-4.6-1-6.3-2.6-1.7-1.7-2.3-3.6-2.3-6.3V80.6c0-2.3.7-4.3 2.3-6.3 1.7-1.7 3.6-2.6 6.3-2.6 2.6 0 4.6 1 6.3 2.6 1.7 1.7 2.3 3.6 2.3 6.3v72.8c0 2.7-.6 4.7-2.3 6.3zM-81 112.1c-5.6-6-12.6-8.6-21.2-8.6s-15.5 3-21.2 8.6c-5.3 5.6-8.3 12.9-8.3 21.5s2.6 15.5 8.3 21.5c5.3 5.6 12.6 8.6 21.2 8.6s15.5-3 21.2-8.6c5.3-5.6 7.9-12.9 7.9-21.2.4-8.9-2.2-16.1-7.9-21.8zm-12.2 31.4c-2 2.6-5 4-8.6 4-3.6 0-6.6-1.3-8.6-4-2-2.6-3.3-6-3.3-10.3 0-4 1-7.3 3.3-9.9 2-2.6 5-4 8.6-4 3.6 0 6.6 1.3 8.6 4 2 2.6 3.3 6 3.3 9.9-.3 4-1.3 7.8-3.3 10.3z" style="fill:#1167cb;fill-rule:nonzero" transform="matrix(.27488 0 0 .27488 106.35 3.848)"/><path d="M-225.8 105.5c6-7.9 9.3-13.2 9.3-15.9 0-6.3-4-9.6-11.9-9.6h-42c-3.3 0-6 .7-7.6 2.3-1.7 1.7-2.6 3.6-2.6 6 0 2.6 1 4.6 2.6 6 1.7 1.7 4.3 2.3 7.6 2.3h28.8l-37 47.6c-2.3 3-3.6 6-3.6 8.3 0 6.9 4.6 10.3 13.9 10.3h43.3c6.9 0 10.3-3 10.3-8.6 0-6-3.3-8.6-10.3-8.6h-31.8l31-40.1z" style="fill:#1167cb;fill-rule:nonzero" transform="matrix(.27488 0 0 .27488 106.35 3.848)"/><g><path d="M-246.4 208.5h-10.9V231h10.9c3.3 0 6-1 7.9-3.3 2-2 3-5 3-7.9 0-3.3-1-6-3-7.9-1.9-2.4-4.5-3.4-7.9-3.4zM-192.4 229.2c-3.3 0-6 1.3-7.9 3.6-2 2.6-3 5.6-3 9.3 0 3.7 1 6.9 3 9.3 2 2.6 4.6 3.6 7.9 3.6 3.3 0 6-1.3 7.9-3.6 2-2.6 3-5.6 3-9.3 0-3.6-1-6.9-3-9.3-2-2.3-4.6-3.6-7.9-3.6z" style="fill:#39b54a;fill-rule:nonzero" transform="matrix(.27488 0 0 .27488 106.35 3.848)"/><path d="M-116.3 176.4h-156.5c-5.3 0-9.6 4.3-9.6 9.6v91.6c0 5.3 4.3 9.6 9.6 9.6h123.4c-1.3-1.3-2-2.6-2-4.3 0-1.3.3-2.6 1-4.3l6-12.9-16.2-40.4c-.3-1-.7-2.3-.7-3.6 0-1.7.7-3.3 2.3-4.3 1.3-1.3 3-2 4.6-2 3.6 0 6 1.7 7.3 5.3l9.9 27.5 10.6-27.5c1.3-3.3 3.6-5.3 7.3-5.3 1.7 0 3.3.7 4.6 2 1.3 1.3 2.3 2.6 2.3 4.3 0 1.3-.3 2.6-.7 3.6l-23.8 57.9c-.7 1.7-1.3 3-2.3 4h22.8c5.3 0 9.6-4.3 9.6-9.6V186c0-5.6-4.3-9.6-9.5-9.6zm-110.5 61.5c-5 4.6-11.2 6.6-18.5 6.6h-11.9v17.2c0 2.6-.7 4.6-2.3 6-1.3 1.3-3.3 2.3-5.6 2.3s-4.3-.7-5.6-2.3c-1.3-1.3-2.3-3.6-2.3-6v-59.5c0-5.6 2.6-8.3 8.3-8.3h18.9c7.9 0 14.2 2.3 19.5 6.9 5 4.6 7.6 10.9 7.6 18.2-.2 8.2-2.8 14.2-8.1 18.9zm61.2 23.5c0 2.3-.7 4-2.3 5.6-1.7 1.7-3.3 2.3-5.6 2.3-3.3 0-6-1.7-7.6-5-3.3 4-7.9 6-13.9 6-6.9 0-12.9-2.6-17.5-7.9-4.6-5.3-7.3-11.9-7.3-19.8s2.3-14.2 7.3-19.8c4.6-5.3 10.6-7.9 17.5-7.9 6 0 10.3 2 13.9 6 1.7-3.3 4-5 7.6-5 2.3 0 4.3.7 5.6 2.3 1.7 1.7 2.3 3.3 2.3 5.6v37.6z" style="fill:#39b54a;fill-rule:nonzero" transform="matrix(.27488 0 0 .27488 106.35 3.848)"/></g></svg>