<?xml version="1.0" encoding="UTF-8" standalone="no"?>
<!DOCTYPE svg PUBLIC "-//W3C//DTD SVG 1.1//EN" "http://www.w3.org/Graphics/SVG/1.1/DTD/svg11.dtd">
<svg width="100%" height="100%" viewBox="0 0 100 100" version="1.1" xmlns="http://www.w3.org/2000/svg" xmlns:xlink="http://www.w3.org/1999/xlink" xml:space="preserve" xmlns:serif="http://www.serif.com/" style="fill-rule:evenodd;clip-rule:evenodd;stroke-linejoin:round;stroke-miterlimit:2;">
    <g transform="matrix(0.274876,0,0,0.274876,106.35,3.84827)">
        <path d="M-319.1,45.8L-52.4,6.8C-67.3,-6.2 -86.7,-14 -107.9,-14L-302.1,-14C-349,-14 -386.9,24 -386.9,70.8L-386.9,265C-386.9,307.1 -356.2,342.1 -316,348.7L-351.2,89C-354.2,68.3 -339.6,48.8 -319.1,45.8Z" style="fill:rgb(17,103,203);fill-rule:nonzero;"/>
        <path d="M-52.4,6.8L-319.1,45.8C-339.6,48.8 -354.2,68.3 -351.2,89.1L-316,348.8C-311.5,349.5 -306.8,350 -302.1,350L-107.9,350C-61,350 -23.1,312 -23.1,265.2L-23.1,70.8C-23.1,45.3 -34.4,22.3 -52.4,6.8Z" style="fill:white;fill-rule:nonzero;"/>
        <path d="M-52.4,6.8L-53.3,7C-35,23 -24,46.5 -24,70.9L-24,264.8C-24,311.2 -61.8,349 -108.2,349L-302.2,349C-306.6,349 -311.7,348.5 -316.2,347.8L-316.1,348.8C-311.4,349.6 -306.9,350 -302.3,350L-108.4,350C-61.4,350 -23.2,311.8 -23.2,264.8L-23.2,70.8C-23.1,46 -33.7,23 -52.4,6.8Z" style="fill:rgb(179,179,179);fill-rule:nonzero;"/>
        <g id="XMLID_85_">
            <g id="XMLID_107_">
                <path id="XMLID_111_" d="M-160.3,106.8C-162,105.1 -163.9,104.2 -166.6,104.2C-170.2,104.2 -172.9,105.9 -174.5,109.5C-178.1,105.2 -183.1,103.2 -189.4,103.2C-197,103.2 -203.3,106.2 -208.6,111.8C-213.9,117.8 -216.2,124.7 -216.2,133C-216.2,141.3 -213.6,148.5 -208.6,154.2C-203.3,160.2 -197,162.8 -189.4,162.8C-183.1,162.8 -178.2,160.8 -174.5,156.5C-172.8,160.1 -170.2,161.8 -166.6,161.8C-164,161.8 -162,160.8 -160.3,159.2C-158.6,157.6 -158,155.6 -158,152.9L-158,112.2C-157.7,110.8 -158.7,108.5 -160.3,106.8ZM-178.2,143.5C-180.2,146.1 -183.2,147.5 -186.8,147.5C-190.4,147.5 -193.4,146.2 -195.4,143.5C-197.4,140.9 -198.7,137.5 -198.7,133.2C-198.7,129.2 -197.7,125.9 -195.4,123.3C-193.4,120.7 -190.4,119.3 -186.8,119.3C-183.2,119.3 -180.2,120.6 -178.2,123.3C-176.2,125.9 -174.9,129.3 -174.9,133.2C-175.2,137.2 -176.2,141 -178.2,143.5Z" style="fill:rgb(17,103,203);fill-rule:nonzero;"/>
                <path id="XMLID_110_" d="M-138.2,159.7C-139.9,161.4 -141.8,162.3 -144.5,162.3C-147.1,162.3 -149.1,161.3 -150.8,159.7C-152.5,158 -153.1,156.1 -153.1,153.4L-153.1,80.6C-153.1,78.3 -152.4,76.3 -150.8,74.3C-149.1,72.6 -147.2,71.7 -144.5,71.7C-141.9,71.7 -139.9,72.7 -138.2,74.3C-136.5,76 -135.9,77.9 -135.9,80.6L-135.9,153.4C-135.9,156.1 -136.5,158.1 -138.2,159.7Z" style="fill:rgb(17,103,203);fill-rule:nonzero;"/>
                <path id="XMLID_109_" d="M-81,112.1C-86.6,106.1 -93.6,103.5 -102.2,103.5C-110.8,103.5 -117.7,106.5 -123.4,112.1C-128.7,117.7 -131.7,125 -131.7,133.6C-131.7,142.2 -129.1,149.1 -123.4,155.1C-118.1,160.7 -110.8,163.7 -102.2,163.7C-93.6,163.7 -86.7,160.7 -81,155.1C-75.7,149.5 -73.1,142.2 -73.1,133.9C-72.7,125 -75.3,117.8 -81,112.1ZM-93.2,143.5C-95.2,146.1 -98.2,147.5 -101.8,147.5C-105.4,147.5 -108.4,146.2 -110.4,143.5C-112.4,140.9 -113.7,137.5 -113.7,133.2C-113.7,129.2 -112.7,125.9 -110.4,123.3C-108.4,120.7 -105.4,119.3 -101.8,119.3C-98.2,119.3 -95.2,120.6 -93.2,123.3C-91.2,125.9 -89.9,129.3 -89.9,133.2C-90.2,137.2 -91.2,141 -93.2,143.5Z" style="fill:rgb(17,103,203);fill-rule:nonzero;"/>
                <path id="XMLID_108_" d="M-225.8,105.5C-219.8,97.6 -216.5,92.3 -216.5,89.6C-216.5,83.3 -220.5,80 -228.4,80L-270.4,80C-273.7,80 -276.4,80.7 -278,82.3C-279.7,84 -280.6,85.9 -280.6,88.3C-280.6,90.9 -279.6,92.9 -278,94.3C-276.3,96 -273.7,96.6 -270.4,96.6L-241.6,96.6L-278.6,144.2C-280.9,147.2 -282.2,150.2 -282.2,152.5C-282.2,159.4 -277.6,162.8 -268.3,162.8L-225,162.8C-218.1,162.8 -214.7,159.8 -214.7,154.2C-214.7,148.2 -218,145.6 -225,145.6L-256.8,145.6L-225.8,105.5Z" style="fill:rgb(17,103,203);fill-rule:nonzero;"/>
            </g>
            <g id="XMLID_86_">
                <path id="XMLID_106_" d="M-246.4,208.5L-257.3,208.5L-257.3,231L-246.4,231C-243.1,231 -240.4,230 -238.5,227.7C-236.5,225.7 -235.5,222.7 -235.5,219.8C-235.5,216.5 -236.5,213.8 -238.5,211.9C-240.4,209.5 -243,208.5 -246.4,208.5Z" style="fill:rgb(57,181,74);fill-rule:nonzero;"/>
                <path id="XMLID_88_" d="M-192.4,229.2C-195.7,229.2 -198.4,230.5 -200.3,232.8C-202.3,235.4 -203.3,238.4 -203.3,242.1C-203.3,245.8 -202.3,249 -200.3,251.4C-198.3,254 -195.7,255 -192.4,255C-189.1,255 -186.4,253.7 -184.5,251.4C-182.5,248.8 -181.5,245.8 -181.5,242.1C-181.5,238.5 -182.5,235.2 -184.5,232.8C-186.5,230.5 -189.1,229.2 -192.4,229.2Z" style="fill:rgb(57,181,74);fill-rule:nonzero;"/>
                <path id="XMLID_87_" d="M-116.3,176.4L-272.8,176.4C-278.1,176.4 -282.4,180.7 -282.4,186L-282.4,277.6C-282.4,282.9 -278.1,287.2 -272.8,287.2L-149.4,287.2C-150.7,285.9 -151.4,284.6 -151.4,282.9C-151.4,281.6 -151.1,280.3 -150.4,278.6L-144.4,265.7L-160.6,225.3C-160.9,224.3 -161.3,223 -161.3,221.7C-161.3,220 -160.6,218.4 -159,217.4C-157.7,216.1 -156,215.4 -154.4,215.4C-150.8,215.4 -148.4,217.1 -147.1,220.7L-137.2,248.2L-126.6,220.7C-125.3,217.4 -123,215.4 -119.3,215.4C-117.6,215.4 -116,216.1 -114.7,217.4C-113.4,218.7 -112.4,220 -112.4,221.7C-112.4,223 -112.7,224.3 -113.1,225.3L-136.9,283.2C-137.6,284.9 -138.2,286.2 -139.2,287.2L-116.4,287.2C-111.1,287.2 -106.8,282.9 -106.8,277.6L-106.8,186C-106.8,180.4 -111.1,176.4 -116.3,176.4ZM-226.8,237.9C-231.8,242.5 -238,244.5 -245.3,244.5L-257.2,244.5L-257.2,261.7C-257.2,264.3 -257.9,266.3 -259.5,267.7C-260.8,269 -262.8,270 -265.1,270C-267.4,270 -269.4,269.3 -270.7,267.7C-272,266.4 -273,264.1 -273,261.7L-273,202.2C-273,196.6 -270.4,193.9 -264.7,193.9L-245.8,193.9C-237.9,193.9 -231.6,196.2 -226.3,200.8C-221.3,205.4 -218.7,211.7 -218.7,219C-218.9,227.2 -221.5,233.2 -226.8,237.9ZM-165.6,261.4C-165.6,263.7 -166.3,265.4 -167.9,267C-169.6,268.7 -171.2,269.3 -173.5,269.3C-176.8,269.3 -179.5,267.6 -181.1,264.3C-184.4,268.3 -189,270.3 -195,270.3C-201.9,270.3 -207.9,267.7 -212.5,262.4C-217.1,257.1 -219.8,250.5 -219.8,242.6C-219.8,234.7 -217.5,228.4 -212.5,222.8C-207.9,217.5 -201.9,214.9 -195,214.9C-189,214.9 -184.7,216.9 -181.1,220.9C-179.4,217.6 -177.1,215.9 -173.5,215.9C-171.2,215.9 -169.2,216.6 -167.9,218.2C-166.2,219.9 -165.6,221.5 -165.6,223.8L-165.6,261.4Z" style="fill:rgb(57,181,74);fill-rule:nonzero;"/>
            </g>
        </g>
    </g>
</svg>
